<?xml version="1.0" ?><svg xmlns="http://www.w3.org/2000/svg" width="37.79052mm" height="70.481018mm" viewBox="0 0 37.79052 70.481018">
    <path d="m 8451.8474,-699.08571 -1.215,-61.27509 32.2596,0.42333 -0.4313,62.50974 -15.4437,-19.04925 z" fill="#FFFFFF" paint-order="fill markers stroke" transform="translate(-595.2403,26.431192) translate(-7853.0416,738.09577)"/>
    <path d="m 8478.993,-696.54575 c -1.4392,-1.43007 -4.5551,-6.09992 -6.9242,-10.37779 -2.3692,-4.27755 -4.5019,-7.75422 -4.739,-7.7256 -0.2376,0.022 -2.0323,2.98044 -3.9893,6.56013 -7.3109,13.37247 -11.4645,17.03414 -12.8875,11.36044 -1.2115,-4.83108 -2.4503,-29.73942 -2.1156,-42.54145 0.1747,-6.6795 0.3551,-14.31918 0.4011,-16.97665 0.046,-2.65781 0.2787,-5.06455 0.5178,-5.34853 1.0552,-1.2549 10.1928,-2.46557 21.156,-2.80334 10.0972,-0.31111 12.1423,-0.11917 13.5545,1.27179 1.9544,1.92424 2.4601,7.54468 1.8792,20.88316 -0.2111,4.85359 -0.3461,16.14591 -0.2998,25.09366 0.081,15.71152 -0.8682,22.83539 -3.0802,23.10102 -0.4708,0.0688 -2.034,-1.06707 -3.473,-2.49684 z m 1.5756,-14.53753 c -0.4485,-4.50855 -0.7923,-16.78275 -0.7632,-27.2756 0.028,-10.49305 -0.1899,-19.27863 -0.4861,-19.5238 -0.7091,-0.58985 -18.0757,-0.80929 -22.7226,-0.28702 l -3.647,0.40946 0.2856,14.98695 c 0.155,8.24273 0.359,20.62764 0.45,27.52175 l 0.1658,12.53489 4.3733,-7.50629 c 6.8855,-11.81847 10.4853,-11.78773 17.8101,0.15113 2.452,3.99673 4.659,7.2486 4.9044,7.22633 0.2451,-0.0219 0.08,-3.72961 -0.3681,-8.23821 z" transform="translate(-595.2403,26.431192) translate(-7853.0416,738.09577)" fill="#000000"/>
</svg>